# xmcd
#
# Track frame offsets:
#	150
#	21872
#	47990
#	69077
#	93365
#	114642
#	140090
#	160890
#	178252
#	198532
#	216917
#	237677
#	256812
#
# Disc length: 3697 seconds
#
# Revision: 2
# Processed by: cddbd v1.5.2PL0 Copyright (c) Steve Scherf et al.
# Submitted via: EasyCDDAExtractor 15.3.0.1
#
DISCID=c30e6f0d
DTITLE=Eros Ramazzotti - Todo Historias
DYEAR=1993
DGENRE=Latin
TTITLE0=Cosas De La Vida
TTITLE1=A Medio Camino
TTITLE2=Otra Como Tu
TTITLE3=Recuerdos
TTITLE4=En Compañia
TTITLE5=Un Fuerte No
TTITLE6=Fabula
TTITLE7=Ya No Hay Fantasia
TTITLE8=Nostalsong
TTITLE9=Nada De Malo
TTITLE10=Exodos
TTITLE11=La Ultima Revolucion
TTITLE12=Silver Y Missie
EXTD=YEAR: 1993
EXTT0=
EXTT1=
EXTT2=
EXTT3=
EXTT4=
EXTT5=
EXTT6=
EXTT7=
EXTT8=
EXTT9=
EXTT10=
EXTT11=
EXTT12=
PLAYORDER=
